# xmcd
#
# Track frame offsets: 
#        182
#        15650
#        31980
#        53765
#        69592
#        93675
#        109332
#        124487
#        144770
#        161452
#
# Disc length: 2571 seconds
#
# Revision: 5
# Processed by: cddbd v1.5.1PL0 Copyright (c) Steve Scherf et al.
# Submitted via: ExactAudioCopy v0.90b4
#
DISCID=850a090a
DTITLE=Scraping Foetus Off the Wheel - Hole
DYEAR=1983
DGENRE=
TTITLE0=Clothes Hoist
TTITLE1=Lust for Death
TTITLE2=I'll Meet You in Poland, Baby
TTITLE3=Hot Horse
TTITLE4=Sick Man
TTITLE5=Street of Shame
TTITLE6=Satan Place
TTITLE7=White Knuckles
TTITLE8=Water Torture
TTITLE9=Cold Day in Hell
EXTD=
EXTT0=
EXTT1=
EXTT2=
EXTT3=
EXTT4=
EXTT5=
EXTT6=
EXTT7=
EXTT8=
EXTT9=
PLAYORDER=
